<svg width="30" height="30" viewBox="0 0 30 30" fill="none" xmlns="http://www.w3.org/2000/svg">
<g clip-path="url(#clip0_36_576)">
<path d="M25.625 3.75H4.375C4.04348 3.75 3.72554 3.8817 3.49112 4.11612C3.2567 4.35054 3.125 4.66848 3.125 5V20C3.125 20.3315 3.2567 20.6495 3.49112 20.8839C3.72554 21.1183 4.04348 21.25 4.375 21.25H25.625C25.9565 21.25 26.2745 21.1183 26.5089 20.8839C26.7433 20.6495 26.875 20.3315 26.875 20V5C26.875 4.66848 26.7433 4.35054 26.5089 4.11612C26.2745 3.8817 25.9565 3.75 25.625 3.75Z" fill="#303030"/>
<path d="M27.5 26.25H2.5C2.16848 26.25 1.85054 26.1183 1.61612 25.8839C1.3817 25.6495 1.25 25.3315 1.25 25C1.25 24.6685 1.3817 24.3505 1.61612 24.1161C1.85054 23.8817 2.16848 23.75 2.5 23.75H27.5C27.8315 23.75 28.1495 23.8817 28.3839 24.1161C28.6183 24.3505 28.75 24.6685 28.75 25C28.75 25.3315 28.6183 25.6495 28.3839 25.8839C28.1495 26.1183 27.8315 26.25 27.5 26.25Z" fill="#303030"/>
</g>
<defs>
<clipPath id="clip0_36_576">
<rect width="30" height="30" fill="white"/>
</clipPath>
</defs>
</svg>
