<svg width="30" height="30" viewBox="0 0 30 30" fill="none" xmlns="http://www.w3.org/2000/svg">
<g clip-path="url(#clip0_86_239)">
<path d="M28.8772 0.000434875H1.1224C0.502454 0.000434875 0 0.502888 0 1.12284V28.8776C0 29.4977 0.502454 30.0001 1.1224 30.0001H28.8776C29.4976 30.0001 30 29.4976 30 28.8776V1.12284C29.9997 0.502888 29.4972 0.000434875 28.8772 0.000434875ZM7.97024 24.6863C7.97024 25.0997 7.63535 25.4345 7.22197 25.4345H4.22626C3.81324 25.4345 3.47799 25.0996 3.47799 24.6863V11.5926C3.47799 11.1792 3.81324 10.8444 4.22626 10.8444H7.22197C7.63535 10.8444 7.97024 11.1792 7.97024 11.5926V24.6863ZM7.97024 7.79363C7.97024 8.20707 7.63535 8.5419 7.22197 8.5419H4.22626C3.81324 8.5419 3.47799 8.20701 3.47799 7.79363V5.13354C3.47799 4.7201 3.81324 4.38527 4.22626 4.38527H7.22197C7.63535 4.38527 7.97024 4.7201 7.97024 5.13354V7.79363ZM26.5217 24.6863C26.5217 25.0997 26.1865 25.4345 25.7734 25.4345H22.7777C22.3643 25.4345 22.0295 25.0996 22.0295 24.6863V19.1577C22.0295 17.3244 21.9337 16.1387 21.7414 15.6004C21.5494 15.062 21.2378 14.6437 20.8061 14.3456C20.3743 14.047 19.855 13.8981 19.2474 13.8981C18.4692 13.8981 17.7711 14.1113 17.153 14.5375C16.5349 14.964 16.1114 15.5285 15.882 16.2319C15.6531 16.9353 15.5386 18.2358 15.5386 20.1326V24.6863C15.5386 25.0997 15.2034 25.4345 14.7903 25.4345H11.7946C11.3816 25.4345 11.0463 25.0996 11.0463 24.6863V11.5926C11.0463 11.1792 11.3815 10.8444 11.7946 10.8444H14.4705C14.8839 10.8444 15.2187 11.1792 15.2187 11.5926V12.5901C15.2187 13.0035 15.4212 13.0701 15.6991 12.7644C17.0969 11.2286 18.8018 10.4605 20.8143 10.4605C21.8054 10.4605 22.7112 10.639 23.532 10.9959C24.3525 11.3528 24.9735 11.8085 25.3945 12.3626C25.8154 12.9167 26.1087 13.5456 26.2737 14.249C26.4387 14.9523 26.5218 15.9595 26.5218 17.2706V24.6863H26.5217Z" fill="white"/>
</g>
<defs>
<clipPath id="clip0_86_239">
<rect width="30" height="30" fill="white"/>
</clipPath>
</defs>
</svg>
